<?xml version="1.0" encoding="utf-8" ?>
<svg baseProfile="full" height="57.5mm" version="1.1" viewBox="0,0,306.20000000000005,57.5" width="306.20000000000005mm" xmlns="http://www.w3.org/2000/svg" xmlns:ev="http://www.w3.org/2001/xml-events" xmlns:xlink="http://www.w3.org/1999/xlink"><defs /><rect fill="#FFFFFF" height="57.5" width="306.20000000000005" x="0" y="0" /><text fill="#000000" style="font-size:6px; font-family:Arial; font-weight:bold;" x="10" y="10">马林康的运动记录</text><text fill="#000000" style="font-size:3px; font-family:Arial;" x="10" y="14.4">2025: 11429 分钟</text><text fill="#000000" style="font-size:2.5px; font-family:Arial" x="10" y="18.3">Jan</text><rect fill="#EBEDF0" height="4" rx="1" ry="1" width="4" x="10" y="19.7"><title>2024-12-30</title></rect><rect fill="#EBEDF0" height="4" rx="1" ry="1" width="4" x="10" y="25.1"><title>2024-12-31</title></rect><rect fill="#549F57" height="4" rx="1" ry="1" width="4" x="10" y="30.5"><title>2025-01-01 275.0 分钟</title></rect><rect fill="#a8e5aa" height="4" rx="1" ry="1" width="4" x="10" y="35.9"><title>2025-01-02 30.0 分钟</title></rect><rect fill="#a8e5aa" height="4" rx="1" ry="1" width="4" x="10" y="41.300000000000004"><title>2025-01-03 30.0 分钟</title></rect><rect fill="#a8e5aa" height="4" rx="1" ry="1" width="4" x="10" y="46.699999999999996"><title>2025-01-04 30.0 分钟</title></rect><rect fill="#a8e5aa" height="4" rx="1" ry="1" width="4" x="10" y="52.1"><title>2025-01-05 32.0 分钟</title></rect><rect fill="#a8e5aa" height="4" rx="1" ry="1" width="4" x="15.4" y="19.7"><title>2025-01-06 30.0 分钟</title></rect><rect fill="#a8e5aa" height="4" rx="1" ry="1" width="4" x="15.4" y="25.1"><title>2025-01-07 31.0 分钟</title></rect><rect fill="#a8e5aa" height="4" rx="1" ry="1" width="4" x="15.4" y="30.5"><title>2025-01-08 31.0 分钟</title></rect><rect fill="#a8e5aa" height="4" rx="1" ry="1" width="4" x="15.4" y="35.9"><title>2025-01-09 31.0 分钟</title></rect><rect fill="#a7e5aa" height="4" rx="1" ry="1" width="4" x="15.4" y="41.300000000000004"><title>2025-01-10 33.0 分钟</title></rect><rect fill="#EBEDF0" height="4" rx="1" ry="1" width="4" x="15.4" y="46.699999999999996"><title>2025-01-11</title></rect><rect fill="#a8e5aa" height="4" rx="1" ry="1" width="4" x="15.4" y="52.1"><title>2025-01-12 32.0 分钟</title></rect><rect fill="#EBEDF0" height="4" rx="1" ry="1" width="4" x="20.8" y="19.7"><title>2025-01-13</title></rect><rect fill="#a8e5aa" height="4" rx="1" ry="1" width="4" x="20.8" y="25.1"><title>2025-01-14 32.0 分钟</title></rect><rect fill="#a8e5aa" height="4" rx="1" ry="1" width="4" x="20.8" y="30.5"><title>2025-01-15 30.0 分钟</title></rect><rect fill="#a8e5aa" height="4" rx="1" ry="1" width="4" x="20.8" y="35.9"><title>2025-01-16 31.0 分钟</title></rect><rect fill="#EBEDF0" height="4" rx="1" ry="1" width="4" x="20.8" y="41.300000000000004"><title>2025-01-17</title></rect><rect fill="#EBEDF0" height="4" rx="1" ry="1" width="4" x="20.8" y="46.699999999999996"><title>2025-01-18</title></rect><rect fill="#EBEDF0" height="4" rx="1" ry="1" width="4" x="20.8" y="52.1"><title>2025-01-19</title></rect><rect fill="#EBEDF0" height="4" rx="1" ry="1" width="4" x="26.200000000000003" y="19.7"><title>2025-01-20</title></rect><rect fill="#EBEDF0" height="4" rx="1" ry="1" width="4" x="26.200000000000003" y="25.1"><title>2025-01-21</title></rect><rect fill="#EBEDF0" height="4" rx="1" ry="1" width="4" x="26.200000000000003" y="30.5"><title>2025-01-22</title></rect><rect fill="#EBEDF0" height="4" rx="1" ry="1" width="4" x="26.200000000000003" y="35.9"><title>2025-01-23</title></rect><rect fill="#EBEDF0" height="4" rx="1" ry="1" width="4" x="26.200000000000003" y="41.300000000000004"><title>2025-01-24</title></rect><rect fill="#a6e4a8" height="4" rx="1" ry="1" width="4" x="26.200000000000003" y="46.699999999999996"><title>2025-01-25 46.0 分钟</title></rect><rect fill="#EBEDF0" height="4" rx="1" ry="1" width="4" x="26.200000000000003" y="52.1"><title>2025-01-26</title></rect><rect fill="#a7e5aa" height="4" rx="1" ry="1" width="4" x="31.6" y="19.7"><title>2025-01-27 33.0 分钟</title></rect><rect fill="#a8e5aa" height="4" rx="1" ry="1" width="4" x="31.6" y="25.1"><title>2025-01-28 29.0 分钟</title></rect><rect fill="#EBEDF0" height="4" rx="1" ry="1" width="4" x="31.6" y="30.5"><title>2025-01-29</title></rect><rect fill="#EBEDF0" height="4" rx="1" ry="1" width="4" x="31.6" y="35.9"><title>2025-01-30</title></rect><rect fill="#EBEDF0" height="4" rx="1" ry="1" width="4" x="31.6" y="41.300000000000004"><title>2025-01-31</title></rect><rect fill="#EBEDF0" height="4" rx="1" ry="1" width="4" x="31.6" y="46.699999999999996"><title>2025-02-01</title></rect><rect fill="#EBEDF0" height="4" rx="1" ry="1" width="4" x="31.6" y="52.1"><title>2025-02-02</title></rect><text fill="#000000" style="font-size:2.5px; font-family:Arial" x="37.0" y="18.3">Feb</text><rect fill="#EBEDF0" height="4" rx="1" ry="1" width="4" x="37.0" y="19.7"><title>2025-02-03</title></rect><rect fill="#a8e5aa" height="4" rx="1" ry="1" width="4" x="37.0" y="25.1"><title>2025-02-04 32.0 分钟</title></rect><rect fill="#a8e5aa" height="4" rx="1" ry="1" width="4" x="37.0" y="30.5"><title>2025-02-05 28.0 分钟</title></rect><rect fill="#EBEDF0" height="4" rx="1" ry="1" width="4" x="37.0" y="35.9"><title>2025-02-06</title></rect><rect fill="#EBEDF0" height="4" rx="1" ry="1" width="4" x="37.0" y="41.300000000000004"><title>2025-02-07</title></rect><rect fill="#EBEDF0" height="4" rx="1" ry="1" width="4" x="37.0" y="46.699999999999996"><title>2025-02-08</title></rect><rect fill="#EBEDF0" height="4" rx="1" ry="1" width="4" x="37.0" y="52.1"><title>2025-02-09</title></rect><rect fill="#a8e5aa" height="4" rx="1" ry="1" width="4" x="42.4" y="19.7"><title>2025-02-10 29.0 分钟</title></rect><rect fill="#EBEDF0" height="4" rx="1" ry="1" width="4" x="42.4" y="25.1"><title>2025-02-11</title></rect><rect fill="#EBEDF0" height="4" rx="1" ry="1" width="4" x="42.4" y="30.5"><title>2025-02-12</title></rect><rect fill="#a8e5aa" height="4" rx="1" ry="1" width="4" x="42.4" y="35.9"><title>2025-02-13 32.0 分钟</title></rect><rect fill="#EBEDF0" height="4" rx="1" ry="1" width="4" x="42.4" y="41.300000000000004"><title>2025-02-14</title></rect><rect fill="#a8e5aa" height="4" rx="1" ry="1" width="4" x="42.4" y="46.699999999999996"><title>2025-02-15 31.0 分钟</title></rect><rect fill="#EBEDF0" height="4" rx="1" ry="1" width="4" x="42.4" y="52.1"><title>2025-02-16</title></rect><rect fill="#a8e5aa" height="4" rx="1" ry="1" width="4" x="47.8" y="19.7"><title>2025-02-17 32.0 分钟</title></rect><rect fill="#EBEDF0" height="4" rx="1" ry="1" width="4" x="47.8" y="25.1"><title>2025-02-18</title></rect><rect fill="#EBEDF0" height="4" rx="1" ry="1" width="4" x="47.8" y="30.5"><title>2025-02-19</title></rect><rect fill="#a8e5aa" height="4" rx="1" ry="1" width="4" x="47.8" y="35.9"><title>2025-02-20 27.0 分钟</title></rect><rect fill="#EBEDF0" height="4" rx="1" ry="1" width="4" x="47.8" y="41.300000000000004"><title>2025-02-21</title></rect><rect fill="#EBEDF0" height="4" rx="1" ry="1" width="4" x="47.8" y="46.699999999999996"><title>2025-02-22</title></rect><rect fill="#EBEDF0" height="4" rx="1" ry="1" width="4" x="47.8" y="52.1"><title>2025-02-23</title></rect><rect fill="#a8e5aa" height="4" rx="1" ry="1" width="4" x="53.199999999999996" y="19.7"><title>2025-02-24 29.0 分钟</title></rect><rect fill="#a9e5ab" height="4" rx="1" ry="1" width="4" x="53.199999999999996" y="25.1"><title>2025-02-25 25.0 分钟</title></rect><rect fill="#a8e5aa" height="4" rx="1" ry="1" width="4" x="53.199999999999996" y="30.5"><title>2025-02-26 31.0 分钟</title></rect><rect fill="#aae6ad" height="4" rx="1" ry="1" width="4" x="53.199999999999996" y="35.9"><title>2025-02-27 11.0 分钟</title></rect><rect fill="#a7e5a9" height="4" rx="1" ry="1" width="4" x="53.199999999999996" y="41.300000000000004"><title>2025-02-28 38.0 分钟</title></rect><rect fill="#a8e5aa" height="4" rx="1" ry="1" width="4" x="53.199999999999996" y="46.699999999999996"><title>2025-03-01 32.0 分钟</title></rect><rect fill="#EBEDF0" height="4" rx="1" ry="1" width="4" x="53.199999999999996" y="52.1"><title>2025-03-02</title></rect><text fill="#000000" style="font-size:2.5px; font-family:Arial" x="58.599999999999994" y="18.3">Mar</text><rect fill="#a8e5aa" height="4" rx="1" ry="1" width="4" x="58.599999999999994" y="19.7"><title>2025-03-03 31.0 分钟</title></rect><rect fill="#a6e4a8" height="4" rx="1" ry="1" width="4" x="58.599999999999994" y="25.1"><title>2025-03-04 45.0 分钟</title></rect><rect fill="#a8e5aa" height="4" rx="1" ry="1" width="4" x="58.599999999999994" y="30.5"><title>2025-03-05 29.0 分钟</title></rect><rect fill="#a9e6ab" height="4" rx="1" ry="1" width="4" x="58.599999999999994" y="35.9"><title>2025-03-06 19.0 分钟</title></rect><rect fill="#EBEDF0" height="4" rx="1" ry="1" width="4" x="58.599999999999994" y="41.300000000000004"><title>2025-03-07</title></rect><rect fill="#a5e4a8" height="4" rx="1" ry="1" width="4" x="58.599999999999994" y="46.699999999999996"><title>2025-03-08 48.0 分钟</title></rect><rect fill="#EBEDF0" height="4" rx="1" ry="1" width="4" x="58.599999999999994" y="52.1"><title>2025-03-09</title></rect><rect fill="#EBEDF0" height="4" rx="1" ry="1" width="4" x="63.99999999999999" y="19.7"><title>2025-03-10</title></rect><rect fill="#a7e5aa" height="4" rx="1" ry="1" width="4" x="63.99999999999999" y="25.1"><title>2025-03-11 33.0 分钟</title></rect><rect fill="#a8e5aa" height="4" rx="1" ry="1" width="4" x="63.99999999999999" y="30.5"><title>2025-03-12 29.0 分钟</title></rect><rect fill="#EBEDF0" height="4" rx="1" ry="1" width="4" x="63.99999999999999" y="35.9"><title>2025-03-13</title></rect><rect fill="#EBEDF0" height="4" rx="1" ry="1" width="4" x="63.99999999999999" y="41.300000000000004"><title>2025-03-14</title></rect><rect fill="#aae6ac" height="4" rx="1" ry="1" width="4" x="63.99999999999999" y="46.699999999999996"><title>2025-03-15 12.0 分钟</title></rect><rect fill="#a6e4a8" height="4" rx="1" ry="1" width="4" x="63.99999999999999" y="52.1"><title>2025-03-16 43.0 分钟</title></rect><rect fill="#EBEDF0" height="4" rx="1" ry="1" width="4" x="69.39999999999999" y="19.7"><title>2025-03-17</title></rect><rect fill="#EBEDF0" height="4" rx="1" ry="1" width="4" x="69.39999999999999" y="25.1"><title>2025-03-18</title></rect><rect fill="#EBEDF0" height="4" rx="1" ry="1" width="4" x="69.39999999999999" y="30.5"><title>2025-03-19</title></rect><rect fill="#a8e5aa" height="4" rx="1" ry="1" width="4" x="69.39999999999999" y="35.9"><title>2025-03-20 30.0 分钟</title></rect><rect fill="#a8e5aa" height="4" rx="1" ry="1" width="4" x="69.39999999999999" y="41.300000000000004"><title>2025-03-21 31.0 分钟</title></rect><rect fill="#EBEDF0" height="4" rx="1" ry="1" width="4" x="69.39999999999999" y="46.699999999999996"><title>2025-03-22</title></rect><rect fill="#a6e4a8" height="4" rx="1" ry="1" width="4" x="69.39999999999999" y="52.1"><title>2025-03-23 44.0 分钟</title></rect><rect fill="#a8e5aa" height="4" rx="1" ry="1" width="4" x="74.8" y="19.7"><title>2025-03-24 29.0 分钟</title></rect><rect fill="#EBEDF0" height="4" rx="1" ry="1" width="4" x="74.8" y="25.1"><title>2025-03-25</title></rect><rect fill="#a8e5aa" height="4" rx="1" ry="1" width="4" x="74.8" y="30.5"><title>2025-03-26 30.0 分钟</title></rect><rect fill="#EBEDF0" height="4" rx="1" ry="1" width="4" x="74.8" y="35.9"><title>2025-03-27</title></rect><rect fill="#EBEDF0" height="4" rx="1" ry="1" width="4" x="74.8" y="41.300000000000004"><title>2025-03-28</title></rect><rect fill="#EBEDF0" height="4" rx="1" ry="1" width="4" x="74.8" y="46.699999999999996"><title>2025-03-29</title></rect><rect fill="#a7e5aa" height="4" rx="1" ry="1" width="4" x="74.8" y="52.1"><title>2025-03-30 33.0 分钟</title></rect><rect fill="#a8e5aa" height="4" rx="1" ry="1" width="4" x="80.2" y="19.7"><title>2025-03-31 31.0 分钟</title></rect><rect fill="#a7e5a9" height="4" rx="1" ry="1" width="4" x="80.2" y="25.1"><title>2025-04-01 36.0 分钟</title></rect><rect fill="#ace7ae" height="4" rx="1" ry="1" width="4" x="80.2" y="30.5"><title>2025-04-02 1.0 分钟</title></rect><rect fill="#a8e5aa" height="4" rx="1" ry="1" width="4" x="80.2" y="35.9"><title>2025-04-03 29.0 分钟</title></rect><rect fill="#a7e5a9" height="4" rx="1" ry="1" width="4" x="80.2" y="41.300000000000004"><title>2025-04-04 39.0 分钟</title></rect><rect fill="#a5e4a7" height="4" rx="1" ry="1" width="4" x="80.2" y="46.699999999999996"><title>2025-04-05 50.0 分钟</title></rect><rect fill="#549F57" height="4" rx="1" ry="1" width="4" x="80.2" y="52.1"><title>2025-04-06 328.0 分钟</title></rect><text fill="#000000" style="font-size:2.5px; font-family:Arial" x="85.60000000000001" y="18.3">Apr</text><rect fill="#EBEDF0" height="4" rx="1" ry="1" width="4" x="85.60000000000001" y="19.7"><title>2025-04-07</title></rect><rect fill="#a8e5aa" height="4" rx="1" ry="1" width="4" x="85.60000000000001" y="25.1"><title>2025-04-08 30.0 分钟</title></rect><rect fill="#a8e5aa" height="4" rx="1" ry="1" width="4" x="85.60000000000001" y="30.5"><title>2025-04-09 28.0 分钟</title></rect><rect fill="#549F57" height="4" rx="1" ry="1" width="4" x="85.60000000000001" y="35.9"><title>2025-04-10 101.0 分钟</title></rect><rect fill="#a8e5aa" height="4" rx="1" ry="1" width="4" x="85.60000000000001" y="41.300000000000004"><title>2025-04-11 31.0 分钟</title></rect><rect fill="#67bf6c" height="4" rx="1" ry="1" width="4" x="85.60000000000001" y="46.699999999999996"><title>2025-04-12 55.0 分钟</title></rect><rect fill="#EBEDF0" height="4" rx="1" ry="1" width="4" x="85.60000000000001" y="52.1"><title>2025-04-13</title></rect><rect fill="#a7e5a9" height="4" rx="1" ry="1" width="4" x="91.00000000000001" y="19.7"><title>2025-04-14 37.0 分钟</title></rect><rect fill="#a7e5a9" height="4" rx="1" ry="1" width="4" x="91.00000000000001" y="25.1"><title>2025-04-15 36.0 分钟</title></rect><rect fill="#549F57" height="4" rx="1" ry="1" width="4" x="91.00000000000001" y="30.5"><title>2025-04-16 358.0 分钟</title></rect><rect fill="#a8e5aa" height="4" rx="1" ry="1" width="4" x="91.00000000000001" y="35.9"><title>2025-04-17 27.0 分钟</title></rect><rect fill="#a9e6ab" height="4" rx="1" ry="1" width="4" x="91.00000000000001" y="41.300000000000004"><title>2025-04-18 19.0 分钟</title></rect><rect fill="#549F57" height="4" rx="1" ry="1" width="4" x="91.00000000000001" y="46.699999999999996"><title>2025-04-19 292.0 分钟</title></rect><rect fill="#EBEDF0" height="4" rx="1" ry="1" width="4" x="91.00000000000001" y="52.1"><title>2025-04-20</title></rect><rect fill="#a8e5aa" height="4" rx="1" ry="1" width="4" x="96.40000000000002" y="19.7"><title>2025-04-21 31.0 分钟</title></rect><rect fill="#a8e5aa" height="4" rx="1" ry="1" width="4" x="96.40000000000002" y="25.1"><title>2025-04-22 30.0 分钟</title></rect><rect fill="#a8e5aa" height="4" rx="1" ry="1" width="4" x="96.40000000000002" y="30.5"><title>2025-04-23 31.0 分钟</title></rect><rect fill="#ace7ae" height="4" rx="1" ry="1" width="4" x="96.40000000000002" y="35.9"><title>2025-04-24 1.0 分钟</title></rect><rect fill="#a8e5aa" height="4" rx="1" ry="1" width="4" x="96.40000000000002" y="41.300000000000004"><title>2025-04-25 30.0 分钟</title></rect><rect fill="#a9e6ab" height="4" rx="1" ry="1" width="4" x="96.40000000000002" y="46.699999999999996"><title>2025-04-26 19.0 分钟</title></rect><rect fill="#a7e5a9" height="4" rx="1" ry="1" width="4" x="96.40000000000002" y="52.1"><title>2025-04-27 34.0 分钟</title></rect><rect fill="#a8e5aa" height="4" rx="1" ry="1" width="4" x="101.80000000000003" y="19.7"><title>2025-04-28 29.0 分钟</title></rect><rect fill="#549F57" height="4" rx="1" ry="1" width="4" x="101.80000000000003" y="25.1"><title>2025-04-29 174.0 分钟</title></rect><rect fill="#ace7ae" height="4" rx="1" ry="1" width="4" x="101.80000000000003" y="30.5"><title>2025-04-30 1.0 分钟</title></rect><rect fill="#EBEDF0" height="4" rx="1" ry="1" width="4" x="101.80000000000003" y="35.9"><title>2025-05-01</title></rect><rect fill="#EBEDF0" height="4" rx="1" ry="1" width="4" x="101.80000000000003" y="41.300000000000004"><title>2025-05-02</title></rect><rect fill="#EBEDF0" height="4" rx="1" ry="1" width="4" x="101.80000000000003" y="46.699999999999996"><title>2025-05-03</title></rect><rect fill="#EBEDF0" height="4" rx="1" ry="1" width="4" x="101.80000000000003" y="52.1"><title>2025-05-04</title></rect><text fill="#000000" style="font-size:2.5px; font-family:Arial" x="107.20000000000003" y="18.3">May</text><rect fill="#abe7ad" height="4" rx="1" ry="1" width="4" x="107.20000000000003" y="19.7"><title>2025-05-05 6.0 分钟</title></rect><rect fill="#a8e5aa" height="4" rx="1" ry="1" width="4" x="107.20000000000003" y="25.1"><title>2025-05-06 28.0 分钟</title></rect><rect fill="#a8e5aa" height="4" rx="1" ry="1" width="4" x="107.20000000000003" y="30.5"><title>2025-05-07 29.0 分钟</title></rect><rect fill="#EBEDF0" height="4" rx="1" ry="1" width="4" x="107.20000000000003" y="35.9"><title>2025-05-08</title></rect><rect fill="#a7e5a9" height="4" rx="1" ry="1" width="4" x="107.20000000000003" y="41.300000000000004"><title>2025-05-09 38.0 分钟</title></rect><rect fill="#ace7ae" height="4" rx="1" ry="1" width="4" x="107.20000000000003" y="46.699999999999996"><title>2025-05-10 1.0 分钟</title></rect><rect fill="#EBEDF0" height="4" rx="1" ry="1" width="4" x="107.20000000000003" y="52.1"><title>2025-05-11</title></rect><rect fill="#aae6ac" height="4" rx="1" ry="1" width="4" x="112.60000000000004" y="19.7"><title>2025-05-12 16.0 分钟</title></rect><rect fill="#ace7ae" height="4" rx="1" ry="1" width="4" x="112.60000000000004" y="25.1"><title>2025-05-13 1.0 分钟</title></rect><rect fill="#a6e4a9" height="4" rx="1" ry="1" width="4" x="112.60000000000004" y="30.5"><title>2025-05-14 41.0 分钟</title></rect><rect fill="#a8e5aa" height="4" rx="1" ry="1" width="4" x="112.60000000000004" y="35.9"><title>2025-05-15 30.0 分钟</title></rect><rect fill="#ace7ae" height="4" rx="1" ry="1" width="4" x="112.60000000000004" y="41.300000000000004"><title>2025-05-16 1.0 分钟</title></rect><rect fill="#a8e5aa" height="4" rx="1" ry="1" width="4" x="112.60000000000004" y="46.699999999999996"><title>2025-05-17 29.0 分钟</title></rect><rect fill="#EBEDF0" height="4" rx="1" ry="1" width="4" x="112.60000000000004" y="52.1"><title>2025-05-18</title></rect><rect fill="#aae6ac" height="4" rx="1" ry="1" width="4" x="118.00000000000004" y="19.7"><title>2025-05-19 16.0 分钟</title></rect><rect fill="#a8e5aa" height="4" rx="1" ry="1" width="4" x="118.00000000000004" y="25.1"><title>2025-05-20 32.0 分钟</title></rect><rect fill="#a5e4a7" height="4" rx="1" ry="1" width="4" x="118.00000000000004" y="30.5"><title>2025-05-21 49.0 分钟</title></rect><rect fill="#EBEDF0" height="4" rx="1" ry="1" width="4" x="118.00000000000004" y="35.9"><title>2025-05-22</title></rect><rect fill="#a6e4a8" height="4" rx="1" ry="1" width="4" x="118.00000000000004" y="41.300000000000004"><title>2025-05-23 46.0 分钟</title></rect><rect fill="#EBEDF0" height="4" rx="1" ry="1" width="4" x="118.00000000000004" y="46.699999999999996"><title>2025-05-24</title></rect><rect fill="#66be6b" height="4" rx="1" ry="1" width="4" x="118.00000000000004" y="52.1"><title>2025-05-25 87.0 分钟</title></rect><rect fill="#abe6ad" height="4" rx="1" ry="1" width="4" x="123.40000000000005" y="19.7"><title>2025-05-26 9.0 分钟</title></rect><rect fill="#a8e5aa" height="4" rx="1" ry="1" width="4" x="123.40000000000005" y="25.1"><title>2025-05-27 30.0 分钟</title></rect><rect fill="#a8e5aa" height="4" rx="1" ry="1" width="4" x="123.40000000000005" y="30.5"><title>2025-05-28 31.0 分钟</title></rect><rect fill="#a8e5aa" height="4" rx="1" ry="1" width="4" x="123.40000000000005" y="35.9"><title>2025-05-29 30.0 分钟</title></rect><rect fill="#a5e4a7" height="4" rx="1" ry="1" width="4" x="123.40000000000005" y="41.300000000000004"><title>2025-05-30 49.0 分钟</title></rect><rect fill="#EBEDF0" height="4" rx="1" ry="1" width="4" x="123.40000000000005" y="46.699999999999996"><title>2025-05-31</title></rect><rect fill="#EBEDF0" height="4" rx="1" ry="1" width="4" x="123.40000000000005" y="52.1"><title>2025-06-01</title></rect><text fill="#000000" style="font-size:2.5px; font-family:Arial" x="128.80000000000004" y="18.3">Jun</text><rect fill="#EBEDF0" height="4" rx="1" ry="1" width="4" x="128.80000000000004" y="19.7"><title>2025-06-02</title></rect><rect fill="#EBEDF0" height="4" rx="1" ry="1" width="4" x="128.80000000000004" y="25.1"><title>2025-06-03</title></rect><rect fill="#a8e5aa" height="4" rx="1" ry="1" width="4" x="128.80000000000004" y="30.5"><title>2025-06-04 31.0 分钟</title></rect><rect fill="#EBEDF0" height="4" rx="1" ry="1" width="4" x="128.80000000000004" y="35.9"><title>2025-06-05</title></rect><rect fill="#a6e4a8" height="4" rx="1" ry="1" width="4" x="128.80000000000004" y="41.300000000000004"><title>2025-06-06 46.0 分钟</title></rect><rect fill="#67bf6c" height="4" rx="1" ry="1" width="4" x="128.80000000000004" y="46.699999999999996"><title>2025-06-07 61.0 分钟</title></rect><rect fill="#67bf6c" height="4" rx="1" ry="1" width="4" x="128.80000000000004" y="52.1"><title>2025-06-08 69.0 分钟</title></rect><rect fill="#a6e4a9" height="4" rx="1" ry="1" width="4" x="134.20000000000005" y="19.7"><title>2025-06-09 41.0 分钟</title></rect><rect fill="#EBEDF0" height="4" rx="1" ry="1" width="4" x="134.20000000000005" y="25.1"><title>2025-06-10</title></rect><rect fill="#67bf6c" height="4" rx="1" ry="1" width="4" x="134.20000000000005" y="30.5"><title>2025-06-11 56.0 分钟</title></rect><rect fill="#ace7ae" height="4" rx="1" ry="1" width="4" x="134.20000000000005" y="35.9"><title>2025-06-12 1.0 分钟</title></rect><rect fill="#549F57" height="4" rx="1" ry="1" width="4" x="134.20000000000005" y="41.300000000000004"><title>2025-06-13 122.0 分钟</title></rect><rect fill="#EBEDF0" height="4" rx="1" ry="1" width="4" x="134.20000000000005" y="46.699999999999996"><title>2025-06-14</title></rect><rect fill="#549F57" height="4" rx="1" ry="1" width="4" x="134.20000000000005" y="52.1"><title>2025-06-15 230.0 分钟</title></rect><rect fill="#a9e6ab" height="4" rx="1" ry="1" width="4" x="139.60000000000005" y="19.7"><title>2025-06-16 21.0 分钟</title></rect><rect fill="#a7e5a9" height="4" rx="1" ry="1" width="4" x="139.60000000000005" y="25.1"><title>2025-06-17 35.0 分钟</title></rect><rect fill="#EBEDF0" height="4" rx="1" ry="1" width="4" x="139.60000000000005" y="30.5"><title>2025-06-18</title></rect><rect fill="#a8e5aa" height="4" rx="1" ry="1" width="4" x="139.60000000000005" y="35.9"><title>2025-06-19 30.0 分钟</title></rect><rect fill="#EBEDF0" height="4" rx="1" ry="1" width="4" x="139.60000000000005" y="41.300000000000004"><title>2025-06-20</title></rect><rect fill="#EBEDF0" height="4" rx="1" ry="1" width="4" x="139.60000000000005" y="46.699999999999996"><title>2025-06-21</title></rect><rect fill="#EBEDF0" height="4" rx="1" ry="1" width="4" x="139.60000000000005" y="52.1"><title>2025-06-22</title></rect><rect fill="#EBEDF0" height="4" rx="1" ry="1" width="4" x="145.00000000000006" y="19.7"><title>2025-06-23</title></rect><rect fill="#ace7ae" height="4" rx="1" ry="1" width="4" x="145.00000000000006" y="25.1"><title>2025-06-24 1.0 分钟</title></rect><rect fill="#a7e5a9" height="4" rx="1" ry="1" width="4" x="145.00000000000006" y="30.5"><title>2025-06-25 34.0 分钟</title></rect><rect fill="#a8e5aa" height="4" rx="1" ry="1" width="4" x="145.00000000000006" y="35.9"><title>2025-06-26 31.0 分钟</title></rect><rect fill="#EBEDF0" height="4" rx="1" ry="1" width="4" x="145.00000000000006" y="41.300000000000004"><title>2025-06-27</title></rect><rect fill="#abe7ad" height="4" rx="1" ry="1" width="4" x="145.00000000000006" y="46.699999999999996"><title>2025-06-28 6.0 分钟</title></rect><rect fill="#67bf6c" height="4" rx="1" ry="1" width="4" x="145.00000000000006" y="52.1"><title>2025-06-29 64.0 分钟</title></rect><rect fill="#EBEDF0" height="4" rx="1" ry="1" width="4" x="150.40000000000006" y="19.7"><title>2025-06-30</title></rect><rect fill="#a7e5aa" height="4" rx="1" ry="1" width="4" x="150.40000000000006" y="25.1"><title>2025-07-01 33.0 分钟</title></rect><rect fill="#a8e5aa" height="4" rx="1" ry="1" width="4" x="150.40000000000006" y="30.5"><title>2025-07-02 31.0 分钟</title></rect><rect fill="#a8e5aa" height="4" rx="1" ry="1" width="4" x="150.40000000000006" y="35.9"><title>2025-07-03 32.0 分钟</title></rect><rect fill="#a8e5aa" height="4" rx="1" ry="1" width="4" x="150.40000000000006" y="41.300000000000004"><title>2025-07-04 32.0 分钟</title></rect><rect fill="#EBEDF0" height="4" rx="1" ry="1" width="4" x="150.40000000000006" y="46.699999999999996"><title>2025-07-05</title></rect><rect fill="#EBEDF0" height="4" rx="1" ry="1" width="4" x="150.40000000000006" y="52.1"><title>2025-07-06</title></rect><text fill="#000000" style="font-size:2.5px; font-family:Arial" x="155.80000000000007" y="18.3">Jul</text><rect fill="#aae6ac" height="4" rx="1" ry="1" width="4" x="155.80000000000007" y="19.7"><title>2025-07-07 13.0 分钟</title></rect><rect fill="#a6e4a8" height="4" rx="1" ry="1" width="4" x="155.80000000000007" y="25.1"><title>2025-07-08 42.0 分钟</title></rect><rect fill="#549F57" height="4" rx="1" ry="1" width="4" x="155.80000000000007" y="30.5"><title>2025-07-09 122.0 分钟</title></rect><rect fill="#EBEDF0" height="4" rx="1" ry="1" width="4" x="155.80000000000007" y="35.9"><title>2025-07-10</title></rect><rect fill="#EBEDF0" height="4" rx="1" ry="1" width="4" x="155.80000000000007" y="41.300000000000004"><title>2025-07-11</title></rect><rect fill="#a9e6ab" height="4" rx="1" ry="1" width="4" x="155.80000000000007" y="46.699999999999996"><title>2025-07-12 19.0 分钟</title></rect><rect fill="#EBEDF0" height="4" rx="1" ry="1" width="4" x="155.80000000000007" y="52.1"><title>2025-07-13</title></rect><rect fill="#67bf6c" height="4" rx="1" ry="1" width="4" x="161.20000000000007" y="19.7"><title>2025-07-14 62.0 分钟</title></rect><rect fill="#EBEDF0" height="4" rx="1" ry="1" width="4" x="161.20000000000007" y="25.1"><title>2025-07-15</title></rect><rect fill="#a9e5ab" height="4" rx="1" ry="1" width="4" x="161.20000000000007" y="30.5"><title>2025-07-16 25.0 分钟</title></rect><rect fill="#67bf6c" height="4" rx="1" ry="1" width="4" x="161.20000000000007" y="35.9"><title>2025-07-17 63.0 分钟</title></rect><rect fill="#EBEDF0" height="4" rx="1" ry="1" width="4" x="161.20000000000007" y="41.300000000000004"><title>2025-07-18</title></rect><rect fill="#EBEDF0" height="4" rx="1" ry="1" width="4" x="161.20000000000007" y="46.699999999999996"><title>2025-07-19</title></rect><rect fill="#a7e5a9" height="4" rx="1" ry="1" width="4" x="161.20000000000007" y="52.1"><title>2025-07-20 35.0 分钟</title></rect><rect fill="#66be6b" height="4" rx="1" ry="1" width="4" x="166.60000000000008" y="19.7"><title>2025-07-21 94.0 分钟</title></rect><rect fill="#a7e5aa" height="4" rx="1" ry="1" width="4" x="166.60000000000008" y="25.1"><title>2025-07-22 33.0 分钟</title></rect><rect fill="#a8e5aa" height="4" rx="1" ry="1" width="4" x="166.60000000000008" y="30.5"><title>2025-07-23 30.0 分钟</title></rect><rect fill="#67bf6c" height="4" rx="1" ry="1" width="4" x="166.60000000000008" y="35.9"><title>2025-07-24 68.0 分钟</title></rect><rect fill="#ace7ae" height="4" rx="1" ry="1" width="4" x="166.60000000000008" y="41.300000000000004"><title>2025-07-25 1.0 分钟</title></rect><rect fill="#a5e4a8" height="4" rx="1" ry="1" width="4" x="166.60000000000008" y="46.699999999999996"><title>2025-07-26 48.0 分钟</title></rect><rect fill="#EBEDF0" height="4" rx="1" ry="1" width="4" x="166.60000000000008" y="52.1"><title>2025-07-27</title></rect><rect fill="#a7e5a9" height="4" rx="1" ry="1" width="4" x="172.00000000000009" y="19.7"><title>2025-07-28 36.0 分钟</title></rect><rect fill="#EBEDF0" height="4" rx="1" ry="1" width="4" x="172.00000000000009" y="25.1"><title>2025-07-29</title></rect><rect fill="#a8e5aa" height="4" rx="1" ry="1" width="4" x="172.00000000000009" y="30.5"><title>2025-07-30 31.0 分钟</title></rect><rect fill="#67bf6c" height="4" rx="1" ry="1" width="4" x="172.00000000000009" y="35.9"><title>2025-07-31 61.0 分钟</title></rect><rect fill="#a8e5aa" height="4" rx="1" ry="1" width="4" x="172.00000000000009" y="41.300000000000004"><title>2025-08-01 31.0 分钟</title></rect><rect fill="#EBEDF0" height="4" rx="1" ry="1" width="4" x="172.00000000000009" y="46.699999999999996"><title>2025-08-02</title></rect><rect fill="#a7e5a9" height="4" rx="1" ry="1" width="4" x="172.00000000000009" y="52.1"><title>2025-08-03 36.0 分钟</title></rect><text fill="#000000" style="font-size:2.5px; font-family:Arial" x="177.4000000000001" y="18.3">Aug</text><rect fill="#a8e5aa" height="4" rx="1" ry="1" width="4" x="177.4000000000001" y="19.7"><title>2025-08-04 32.0 分钟</title></rect><rect fill="#67bf6c" height="4" rx="1" ry="1" width="4" x="177.4000000000001" y="25.1"><title>2025-08-05 65.0 分钟</title></rect><rect fill="#67bf6c" height="4" rx="1" ry="1" width="4" x="177.4000000000001" y="30.5"><title>2025-08-06 53.0 分钟</title></rect><rect fill="#a8e5aa" height="4" rx="1" ry="1" width="4" x="177.4000000000001" y="35.9"><title>2025-08-07 31.0 分钟</title></rect><rect fill="#a5e4a7" height="4" rx="1" ry="1" width="4" x="177.4000000000001" y="41.300000000000004"><title>2025-08-08 51.0 分钟</title></rect><rect fill="#EBEDF0" height="4" rx="1" ry="1" width="4" x="177.4000000000001" y="46.699999999999996"><title>2025-08-09</title></rect><rect fill="#67bf6c" height="4" rx="1" ry="1" width="4" x="177.4000000000001" y="52.1"><title>2025-08-10 56.0 分钟</title></rect><rect fill="#EBEDF0" height="4" rx="1" ry="1" width="4" x="182.8000000000001" y="19.7"><title>2025-08-11</title></rect><rect fill="#a7e5aa" height="4" rx="1" ry="1" width="4" x="182.8000000000001" y="25.1"><title>2025-08-12 33.0 分钟</title></rect><rect fill="#549F57" height="4" rx="1" ry="1" width="4" x="182.8000000000001" y="30.5"><title>2025-08-13 206.0 分钟</title></rect><rect fill="#EBEDF0" height="4" rx="1" ry="1" width="4" x="182.8000000000001" y="35.9"><title>2025-08-14</title></rect><rect fill="#a7e5a9" height="4" rx="1" ry="1" width="4" x="182.8000000000001" y="41.300000000000004"><title>2025-08-15 34.0 分钟</title></rect><rect fill="#aae6ac" height="4" rx="1" ry="1" width="4" x="182.8000000000001" y="46.699999999999996"><title>2025-08-16 13.0 分钟</title></rect><rect fill="#EBEDF0" height="4" rx="1" ry="1" width="4" x="182.8000000000001" y="52.1"><title>2025-08-17</title></rect><rect fill="#EBEDF0" height="4" rx="1" ry="1" width="4" x="188.2000000000001" y="19.7"><title>2025-08-18</title></rect><rect fill="#a8e5aa" height="4" rx="1" ry="1" width="4" x="188.2000000000001" y="25.1"><title>2025-08-19 30.0 分钟</title></rect><rect fill="#67bf6c" height="4" rx="1" ry="1" width="4" x="188.2000000000001" y="30.5"><title>2025-08-20 53.0 分钟</title></rect><rect fill="#aae6ac" height="4" rx="1" ry="1" width="4" x="188.2000000000001" y="35.9"><title>2025-08-21 17.0 分钟</title></rect><rect fill="#EBEDF0" height="4" rx="1" ry="1" width="4" x="188.2000000000001" y="41.300000000000004"><title>2025-08-22</title></rect><rect fill="#aae6ac" height="4" rx="1" ry="1" width="4" x="188.2000000000001" y="46.699999999999996"><title>2025-08-23 12.0 分钟</title></rect><rect fill="#ace7ae" height="4" rx="1" ry="1" width="4" x="188.2000000000001" y="52.1"><title>2025-08-24 3.0 分钟</title></rect><rect fill="#a7e5aa" height="4" rx="1" ry="1" width="4" x="193.6000000000001" y="19.7"><title>2025-08-25 33.0 分钟</title></rect><rect fill="#67bf6c" height="4" rx="1" ry="1" width="4" x="193.6000000000001" y="25.1"><title>2025-08-26 53.0 分钟</title></rect><rect fill="#EBEDF0" height="4" rx="1" ry="1" width="4" x="193.6000000000001" y="30.5"><title>2025-08-27</title></rect><rect fill="#EBEDF0" height="4" rx="1" ry="1" width="4" x="193.6000000000001" y="35.9"><title>2025-08-28</title></rect><rect fill="#EBEDF0" height="4" rx="1" ry="1" width="4" x="193.6000000000001" y="41.300000000000004"><title>2025-08-29</title></rect><rect fill="#67bf6c" height="4" rx="1" ry="1" width="4" x="193.6000000000001" y="46.699999999999996"><title>2025-08-30 60.0 分钟</title></rect><rect fill="#66be6b" height="4" rx="1" ry="1" width="4" x="193.6000000000001" y="52.1"><title>2025-08-31 75.0 分钟</title></rect><text fill="#000000" style="font-size:2.5px; font-family:Arial" x="199.0000000000001" y="18.3">Sep</text><rect fill="#a8e5aa" height="4" rx="1" ry="1" width="4" x="199.0000000000001" y="19.7"><title>2025-09-01 29.0 分钟</title></rect><rect fill="#EBEDF0" height="4" rx="1" ry="1" width="4" x="199.0000000000001" y="25.1"><title>2025-09-02</title></rect><rect fill="#a5e4a7" height="4" rx="1" ry="1" width="4" x="199.0000000000001" y="30.5"><title>2025-09-03 50.0 分钟</title></rect><rect fill="#EBEDF0" height="4" rx="1" ry="1" width="4" x="199.0000000000001" y="35.9"><title>2025-09-04</title></rect><rect fill="#a6e4a8" height="4" rx="1" ry="1" width="4" x="199.0000000000001" y="41.300000000000004"><title>2025-09-05 45.0 分钟</title></rect><rect fill="#EBEDF0" height="4" rx="1" ry="1" width="4" x="199.0000000000001" y="46.699999999999996"><title>2025-09-06</title></rect><rect fill="#EBEDF0" height="4" rx="1" ry="1" width="4" x="199.0000000000001" y="52.1"><title>2025-09-07</title></rect><rect fill="#EBEDF0" height="4" rx="1" ry="1" width="4" x="204.40000000000012" y="19.7"><title>2025-09-08</title></rect><rect fill="#a5e4a7" height="4" rx="1" ry="1" width="4" x="204.40000000000012" y="25.1"><title>2025-09-09 50.0 分钟</title></rect><rect fill="#ace7ae" height="4" rx="1" ry="1" width="4" x="204.40000000000012" y="30.5"><title>2025-09-10 1.0 分钟</title></rect><rect fill="#a7e5a9" height="4" rx="1" ry="1" width="4" x="204.40000000000012" y="35.9"><title>2025-09-11 35.0 分钟</title></rect><rect fill="#a5e4a8" height="4" rx="1" ry="1" width="4" x="204.40000000000012" y="41.300000000000004"><title>2025-09-12 48.0 分钟</title></rect><rect fill="#EBEDF0" height="4" rx="1" ry="1" width="4" x="204.40000000000012" y="46.699999999999996"><title>2025-09-13</title></rect><rect fill="#67bf6c" height="4" rx="1" ry="1" width="4" x="204.40000000000012" y="52.1"><title>2025-09-14 55.0 分钟</title></rect><rect fill="#EBEDF0" height="4" rx="1" ry="1" width="4" x="209.80000000000013" y="19.7"><title>2025-09-15</title></rect><rect fill="#a8e5aa" height="4" rx="1" ry="1" width="4" x="209.80000000000013" y="25.1"><title>2025-09-16 31.0 分钟</title></rect><rect fill="#a7e5a9" height="4" rx="1" ry="1" width="4" x="209.80000000000013" y="30.5"><title>2025-09-17 34.0 分钟</title></rect><rect fill="#a5e4a7" height="4" rx="1" ry="1" width="4" x="209.80000000000013" y="35.9"><title>2025-09-18 51.0 分钟</title></rect><rect fill="#EBEDF0" height="4" rx="1" ry="1" width="4" x="209.80000000000013" y="41.300000000000004"><title>2025-09-19</title></rect><rect fill="#66be6b" height="4" rx="1" ry="1" width="4" x="209.80000000000013" y="46.699999999999996"><title>2025-09-20 81.0 分钟</title></rect><rect fill="#EBEDF0" height="4" rx="1" ry="1" width="4" x="209.80000000000013" y="52.1"><title>2025-09-21</title></rect><rect fill="#a7e5aa" height="4" rx="1" ry="1" width="4" x="215.20000000000013" y="19.7"><title>2025-09-22 33.0 分钟</title></rect><rect fill="#a5e4a8" height="4" rx="1" ry="1" width="4" x="215.20000000000013" y="25.1"><title>2025-09-23 48.0 分钟</title></rect><rect fill="#EBEDF0" height="4" rx="1" ry="1" width="4" x="215.20000000000013" y="30.5"><title>2025-09-24</title></rect><rect fill="#66be6b" height="4" rx="1" ry="1" width="4" x="215.20000000000013" y="35.9"><title>2025-09-25 88.0 分钟</title></rect><rect fill="#EBEDF0" height="4" rx="1" ry="1" width="4" x="215.20000000000013" y="41.300000000000004"><title>2025-09-26</title></rect><rect fill="#EBEDF0" height="4" rx="1" ry="1" width="4" x="215.20000000000013" y="46.699999999999996"><title>2025-09-27</title></rect><rect fill="#a5e4a8" height="4" rx="1" ry="1" width="4" x="215.20000000000013" y="52.1"><title>2025-09-28 48.0 分钟</title></rect><rect fill="#EBEDF0" height="4" rx="1" ry="1" width="4" x="220.60000000000014" y="19.7"><title>2025-09-29</title></rect><rect fill="#EBEDF0" height="4" rx="1" ry="1" width="4" x="220.60000000000014" y="25.1"><title>2025-09-30</title></rect><rect fill="#EBEDF0" height="4" rx="1" ry="1" width="4" x="220.60000000000014" y="30.5"><title>2025-10-01</title></rect><rect fill="#549F57" height="4" rx="1" ry="1" width="4" x="220.60000000000014" y="35.9"><title>2025-10-02 185.0 分钟</title></rect><rect fill="#549F57" height="4" rx="1" ry="1" width="4" x="220.60000000000014" y="41.300000000000004"><title>2025-10-03 158.0 分钟</title></rect><rect fill="#EBEDF0" height="4" rx="1" ry="1" width="4" x="220.60000000000014" y="46.699999999999996"><title>2025-10-04</title></rect><rect fill="#EBEDF0" height="4" rx="1" ry="1" width="4" x="220.60000000000014" y="52.1"><title>2025-10-05</title></rect><text fill="#000000" style="font-size:2.5px; font-family:Arial" x="226.00000000000014" y="18.3">Oct</text><rect fill="#a8e5aa" height="4" rx="1" ry="1" width="4" x="226.00000000000014" y="19.7"><title>2025-10-06 30.0 分钟</title></rect><rect fill="#EBEDF0" height="4" rx="1" ry="1" width="4" x="226.00000000000014" y="25.1"><title>2025-10-07</title></rect><rect fill="#EBEDF0" height="4" rx="1" ry="1" width="4" x="226.00000000000014" y="30.5"><title>2025-10-08</title></rect><rect fill="#EBEDF0" height="4" rx="1" ry="1" width="4" x="226.00000000000014" y="35.9"><title>2025-10-09</title></rect><rect fill="#EBEDF0" height="4" rx="1" ry="1" width="4" x="226.00000000000014" y="41.300000000000004"><title>2025-10-10</title></rect><rect fill="#EBEDF0" height="4" rx="1" ry="1" width="4" x="226.00000000000014" y="46.699999999999996"><title>2025-10-11</title></rect><rect fill="#EBEDF0" height="4" rx="1" ry="1" width="4" x="226.00000000000014" y="52.1"><title>2025-10-12</title></rect><rect fill="#EBEDF0" height="4" rx="1" ry="1" width="4" x="231.40000000000015" y="19.7"><title>2025-10-13</title></rect><rect fill="#67bf6b" height="4" rx="1" ry="1" width="4" x="231.40000000000015" y="25.1"><title>2025-10-14 71.0 分钟</title></rect><rect fill="#549F57" height="4" rx="1" ry="1" width="4" x="231.40000000000015" y="30.5"><title>2025-10-15 179.0 分钟</title></rect><rect fill="#a8e5aa" height="4" rx="1" ry="1" width="4" x="231.40000000000015" y="35.9"><title>2025-10-16 32.0 分钟</title></rect><rect fill="#549F57" height="4" rx="1" ry="1" width="4" x="231.40000000000015" y="41.300000000000004"><title>2025-10-17 321.0 分钟</title></rect><rect fill="#EBEDF0" height="4" rx="1" ry="1" width="4" x="231.40000000000015" y="46.699999999999996"><title>2025-10-18</title></rect><rect fill="#EBEDF0" height="4" rx="1" ry="1" width="4" x="231.40000000000015" y="52.1"><title>2025-10-19</title></rect><rect fill="#EBEDF0" height="4" rx="1" ry="1" width="4" x="236.80000000000015" y="19.7"><title>2025-10-20</title></rect><rect fill="#a8e5aa" height="4" rx="1" ry="1" width="4" x="236.80000000000015" y="25.1"><title>2025-10-21 31.0 分钟</title></rect><rect fill="#EBEDF0" height="4" rx="1" ry="1" width="4" x="236.80000000000015" y="30.5"><title>2025-10-22</title></rect><rect fill="#EBEDF0" height="4" rx="1" ry="1" width="4" x="236.80000000000015" y="35.9"><title>2025-10-23</title></rect><rect fill="#EBEDF0" height="4" rx="1" ry="1" width="4" x="236.80000000000015" y="41.300000000000004"><title>2025-10-24</title></rect><rect fill="#EBEDF0" height="4" rx="1" ry="1" width="4" x="236.80000000000015" y="46.699999999999996"><title>2025-10-25</title></rect><rect fill="#a6e4a8" height="4" rx="1" ry="1" width="4" x="236.80000000000015" y="52.1"><title>2025-10-26 46.0 分钟</title></rect><rect fill="#66be6b" height="4" rx="1" ry="1" width="4" x="242.20000000000016" y="19.7"><title>2025-10-27 86.0 分钟</title></rect><rect fill="#549F57" height="4" rx="1" ry="1" width="4" x="242.20000000000016" y="25.1"><title>2025-10-28 351.0 分钟</title></rect><rect fill="#67bf6c" height="4" rx="1" ry="1" width="4" x="242.20000000000016" y="30.5"><title>2025-10-29 63.0 分钟</title></rect><rect fill="#66be6b" height="4" rx="1" ry="1" width="4" x="242.20000000000016" y="35.9"><title>2025-10-30 82.0 分钟</title></rect><rect fill="#EBEDF0" height="4" rx="1" ry="1" width="4" x="242.20000000000016" y="41.300000000000004"><title>2025-10-31</title></rect><rect fill="#EBEDF0" height="4" rx="1" ry="1" width="4" x="242.20000000000016" y="46.699999999999996"><title>2025-11-01</title></rect><rect fill="#a6e4a8" height="4" rx="1" ry="1" width="4" x="242.20000000000016" y="52.1"><title>2025-11-02 47.0 分钟</title></rect><text fill="#000000" style="font-size:2.5px; font-family:Arial" x="247.60000000000016" y="18.3">Nov</text><rect fill="#EBEDF0" height="4" rx="1" ry="1" width="4" x="247.60000000000016" y="19.7"><title>2025-11-03</title></rect><rect fill="#67bf6c" height="4" rx="1" ry="1" width="4" x="247.60000000000016" y="25.1"><title>2025-11-04 56.0 分钟</title></rect><rect fill="#a7e5aa" height="4" rx="1" ry="1" width="4" x="247.60000000000016" y="30.5"><title>2025-11-05 33.0 分钟</title></rect><rect fill="#ace7ae" height="4" rx="1" ry="1" width="4" x="247.60000000000016" y="35.9"><title>2025-11-06 1.0 分钟</title></rect><rect fill="#a7e5a9" height="4" rx="1" ry="1" width="4" x="247.60000000000016" y="41.300000000000004"><title>2025-11-07 36.0 分钟</title></rect><rect fill="#EBEDF0" height="4" rx="1" ry="1" width="4" x="247.60000000000016" y="46.699999999999996"><title>2025-11-08</title></rect><rect fill="#EBEDF0" height="4" rx="1" ry="1" width="4" x="247.60000000000016" y="52.1"><title>2025-11-09</title></rect><rect fill="#EBEDF0" height="4" rx="1" ry="1" width="4" x="253.00000000000017" y="19.7"><title>2025-11-10</title></rect><rect fill="#67bf6c" height="4" rx="1" ry="1" width="4" x="253.00000000000017" y="25.1"><title>2025-11-11 53.0 分钟</title></rect><rect fill="#a8e5aa" height="4" rx="1" ry="1" width="4" x="253.00000000000017" y="30.5"><title>2025-11-12 32.0 分钟</title></rect><rect fill="#EBEDF0" height="4" rx="1" ry="1" width="4" x="253.00000000000017" y="35.9"><title>2025-11-13</title></rect><rect fill="#67bf6c" height="4" rx="1" ry="1" width="4" x="253.00000000000017" y="41.300000000000004"><title>2025-11-14 55.0 分钟</title></rect><rect fill="#EBEDF0" height="4" rx="1" ry="1" width="4" x="253.00000000000017" y="46.699999999999996"><title>2025-11-15</title></rect><rect fill="#a7e5aa" height="4" rx="1" ry="1" width="4" x="253.00000000000017" y="52.1"><title>2025-11-16 33.0 分钟</title></rect><rect fill="#EBEDF0" height="4" rx="1" ry="1" width="4" x="258.40000000000015" y="19.7"><title>2025-11-17</title></rect><rect fill="#67bf6c" height="4" rx="1" ry="1" width="4" x="258.40000000000015" y="25.1"><title>2025-11-18 52.0 分钟</title></rect><rect fill="#EBEDF0" height="4" rx="1" ry="1" width="4" x="258.40000000000015" y="30.5"><title>2025-11-19</title></rect><rect fill="#a7e5aa" height="4" rx="1" ry="1" width="4" x="258.40000000000015" y="35.9"><title>2025-11-20 33.0 分钟</title></rect><rect fill="#a9e6ab" height="4" rx="1" ry="1" width="4" x="258.40000000000015" y="41.300000000000004"><title>2025-11-21 20.0 分钟</title></rect><rect fill="#67bf6c" height="4" rx="1" ry="1" width="4" x="258.40000000000015" y="46.699999999999996"><title>2025-11-22 55.0 分钟</title></rect><rect fill="#a9e6ab" height="4" rx="1" ry="1" width="4" x="258.40000000000015" y="52.1"><title>2025-11-23 20.0 分钟</title></rect><rect fill="#EBEDF0" height="4" rx="1" ry="1" width="4" x="263.8000000000001" y="19.7"><title>2025-11-24</title></rect><rect fill="#67bf6c" height="4" rx="1" ry="1" width="4" x="263.8000000000001" y="25.1"><title>2025-11-25 56.0 分钟</title></rect><rect fill="#67bf6c" height="4" rx="1" ry="1" width="4" x="263.8000000000001" y="30.5"><title>2025-11-26 54.0 分钟</title></rect><rect fill="#EBEDF0" height="4" rx="1" ry="1" width="4" x="263.8000000000001" y="35.9"><title>2025-11-27</title></rect><rect fill="#EBEDF0" height="4" rx="1" ry="1" width="4" x="263.8000000000001" y="41.300000000000004"><title>2025-11-28</title></rect><rect fill="#EBEDF0" height="4" rx="1" ry="1" width="4" x="263.8000000000001" y="46.699999999999996"><title>2025-11-29</title></rect><rect fill="#EBEDF0" height="4" rx="1" ry="1" width="4" x="263.8000000000001" y="52.1"><title>2025-11-30</title></rect><text fill="#000000" style="font-size:2.5px; font-family:Arial" x="269.2000000000001" y="18.3">Dec</text><rect fill="#549F57" height="4" rx="1" ry="1" width="4" x="269.2000000000001" y="19.7"><title>2025-12-01 809.0 分钟</title></rect><rect fill="#a7e5a9" height="4" rx="1" ry="1" width="4" x="269.2000000000001" y="25.1"><title>2025-12-02 36.0 分钟</title></rect><rect fill="#a7e5a9" height="4" rx="1" ry="1" width="4" x="269.2000000000001" y="30.5"><title>2025-12-03 34.0 分钟</title></rect><rect fill="#a8e5aa" height="4" rx="1" ry="1" width="4" x="269.2000000000001" y="35.9"><title>2025-12-04 31.0 分钟</title></rect><rect fill="#a7e5aa" height="4" rx="1" ry="1" width="4" x="269.2000000000001" y="41.300000000000004"><title>2025-12-05 33.0 分钟</title></rect><rect fill="#EBEDF0" height="4" rx="1" ry="1" width="4" x="269.2000000000001" y="46.699999999999996"><title>2025-12-06</title></rect><rect fill="#a8e5aa" height="4" rx="1" ry="1" width="4" x="269.2000000000001" y="52.1"><title>2025-12-07 32.0 分钟</title></rect><rect fill="#a8e5aa" height="4" rx="1" ry="1" width="4" x="274.6000000000001" y="19.7"><title>2025-12-08 30.0 分钟</title></rect><rect fill="#a8e5aa" height="4" rx="1" ry="1" width="4" x="274.6000000000001" y="25.1"><title>2025-12-09 31.0 分钟</title></rect><rect fill="#a5e4a7" height="4" rx="1" ry="1" width="4" x="274.6000000000001" y="30.5"><title>2025-12-10 51.0 分钟</title></rect><rect fill="#a8e5aa" height="4" rx="1" ry="1" width="4" x="274.6000000000001" y="35.9"><title>2025-12-11 31.0 分钟</title></rect><rect fill="#66be6b" height="4" rx="1" ry="1" width="4" x="274.6000000000001" y="41.300000000000004"><title>2025-12-12 83.0 分钟</title></rect><rect fill="#EBEDF0" height="4" rx="1" ry="1" width="4" x="274.6000000000001" y="46.699999999999996"><title>2025-12-13</title></rect><rect fill="#a5e4a7" height="4" rx="1" ry="1" width="4" x="274.6000000000001" y="52.1"><title>2025-12-14 50.0 分钟</title></rect><rect fill="#a9e6ab" height="4" rx="1" ry="1" width="4" x="280.00000000000006" y="19.7"><title>2025-12-15 24.0 分钟</title></rect><rect fill="#a5e4a7" height="4" rx="1" ry="1" width="4" x="280.00000000000006" y="25.1"><title>2025-12-16 49.0 分钟</title></rect><rect fill="#a5e4a7" height="4" rx="1" ry="1" width="4" x="280.00000000000006" y="30.5"><title>2025-12-17 49.0 分钟</title></rect><rect fill="#a8e5aa" height="4" rx="1" ry="1" width="4" x="280.00000000000006" y="35.9"><title>2025-12-18 32.0 分钟</title></rect><rect fill="#a8e5aa" height="4" rx="1" ry="1" width="4" x="280.00000000000006" y="41.300000000000004"><title>2025-12-19 30.0 分钟</title></rect><rect fill="#a8e5ab" height="4" rx="1" ry="1" width="4" x="280.00000000000006" y="46.699999999999996"><title>2025-12-20 26.0 分钟</title></rect><rect fill="#a6e4a8" height="4" rx="1" ry="1" width="4" x="280.00000000000006" y="52.1"><title>2025-12-21 47.0 分钟</title></rect><rect fill="#EBEDF0" height="4" rx="1" ry="1" width="4" x="285.40000000000003" y="19.7"><title>2025-12-22</title></rect><rect fill="#EBEDF0" height="4" rx="1" ry="1" width="4" x="285.40000000000003" y="25.1"><title>2025-12-23</title></rect><rect fill="#EBEDF0" height="4" rx="1" ry="1" width="4" x="285.40000000000003" y="30.5"><title>2025-12-24</title></rect><rect fill="#EBEDF0" height="4" rx="1" ry="1" width="4" x="285.40000000000003" y="35.9"><title>2025-12-25</title></rect><rect fill="#EBEDF0" height="4" rx="1" ry="1" width="4" x="285.40000000000003" y="41.300000000000004"><title>2025-12-26</title></rect><rect fill="#EBEDF0" height="4" rx="1" ry="1" width="4" x="285.40000000000003" y="46.699999999999996"><title>2025-12-27</title></rect><rect fill="#EBEDF0" height="4" rx="1" ry="1" width="4" x="285.40000000000003" y="52.1"><title>2025-12-28</title></rect><rect fill="#EBEDF0" height="4" rx="1" ry="1" width="4" x="290.8" y="19.7"><title>2025-12-29</title></rect><rect fill="#EBEDF0" height="4" rx="1" ry="1" width="4" x="290.8" y="25.1"><title>2025-12-30</title></rect><rect fill="#EBEDF0" height="4" rx="1" ry="1" width="4" x="290.8" y="30.5"><title>2025-12-31</title></rect></svg>